<svg xmlns="http://www.w3.org/2000/svg" viewBox="100,-50,300,500" width="50px" height="50px" ><path d="M41.986 4.023c-1.524 2.465.533 8.13 4.569 12.59 7.13 7.879 7.113 8.275-.608 13.943C41.576 33.764 38 40.317 38 45.117c0 5.626-4.013 10.66-11.291 14.163-6.922 3.332-10.462 7.595-9.149 11.017 1.178 3.069-1.269 7.407-5.438 9.638C.2 86.315-1.109 98.003 7.31 122.92 11.598 135.614 18.2 156.8 21.98 170 59.909 302.46 177.111 372.961 318 348.067c15.4-2.721 33.4-5.61 40-6.421 26.255-3.225 39.988-8.152 41.269-14.805 1.387-7.203-2.496-7.734-54.269-7.428-19.592.116-26.357-3.63-17-9.413 5.029-3.108 5.268-14 .307-14-2.031 0-9.341 4.752-16.243 10.56l-12.549 10.56-24.434-7.398c-82.637-25.021-127.399-90.892-128.608-189.256-.517-42.056-1.936-40.127 25.152-34.198l13.625 2.982-8.322-8.322c-8.396-8.396-25.054-18.702-26.271-16.252-8.913 17.952-25.675 26.36-53.856 27.017-7.259.169-18.059 2.759-24 5.756-19.585 9.88-45.403 11.112-47.714 2.277C22.6 90.214 16 93.661 16 104.472c0 4.4-1.8 6.888-4 5.528-7.187-4.442-4.208-14.077 5.755-18.616 7.853-3.578 11.029-3.172 16.286 2.085 8.843 8.843 15.503 8.579 10.469-.415-4.734-8.459 20.821-17.701 41.14-14.878 10.943 1.52 11.21 1.342 2.35-1.562-9.107-2.985-8.408-3.56 7.836-6.439 12.199-2.162 18.309-1.741 19.333 1.332.824 2.471 3.091 4.493 5.039 4.493 1.947 0 2.505-2.7 1.239-6-1.762-4.59.853-6.021 11.125-6.091L146 63.818l-14-6.734c-7.7-3.703-15.439-9.062-17.199-11.909-1.759-2.846-7.778-5.175-13.374-5.175-6.715 0-10.868-2.645-12.21-7.777-1.366-5.225-6.148-8.178-14.571-9C64.283 22.212 62.099 20.265 62.054 12 61.996 1.254 47.306-4.585 41.986 4.023m40.178 40.243c4.691 7.59-2.15 9.462-9.116 2.496C66.812 40.526 66.801 40 72.907 40c3.641 0 7.807 1.92 9.257 4.266M99.939 55c-.156 7.64-7.388 13.812-12.489 10.66-2.995-1.851-10.846-3.026-17.448-2.612-10.806.678-10.407.207 3.998-4.728 18.97-6.499 26.022-7.401 25.939-3.32M60.975 86.657C55.445 88.887 58.107 96 64.472 96c2.2 0 2.983-1.646 1.739-3.658-1.243-2.012 0-4.57 2.764-5.685 2.764-1.114 3.225-2.025 1.025-2.025s-6.261.911-9.025 2.025M140 104c0 6.6-1.906 12-4.236 12s-3.124-1.8-1.764-4 .566-4-1.764-4-4.236 3.793-4.236 8.428c0 5.519 1.904 7.697 5.515 6.312 7.203-2.764 12.085 33.756 5.106 38.197-3.417 2.174-3.351 2.956.253 3.002 2.681.033 3.839 2.761 2.573 6.061-1.267 3.3-.651 6 1.369 6 4.38 0 14.77 38.197 11.729 43.119-1.164 1.883 1.532 6.002 5.992 9.152 4.459 3.151 17.06 17.984 28.001 32.963 14.767 20.218 24.36 29.15 37.236 34.669 9.54 4.089 18.397 9.137 19.682 11.217 1.286 2.081 10.531 6.076 20.544 8.88 18.516 5.184 27.665 12 16.108 12-3.501 0-13.025-2.783-21.165-6.184-8.141-3.401-22.033-5.789-30.872-5.306-18.232.996-39.799-6.478-36.076-12.503 1.368-2.212-1.66-4.133-6.759-4.288-8.142-.248-8.348-.63-1.739-3.227 6.77-2.66 6.231-4.01-5.56-13.932-7.182-6.042-15.599-10.011-18.705-8.819-3.106 1.192-4.628.518-3.382-1.499 1.247-2.016-1.175-4.758-5.381-6.093-5.203-1.651-6.994-4.925-5.604-10.24 1.364-5.217-.433-8.698-5.411-10.481-13.615-4.876-18.52-10.293-12.643-13.961 8.332-5.201-1.688-17.159-16.312-19.467-13.191-2.082-28.634-21.955-19.441-25.019 7.54-2.514-1.547-11.786-9.509-9.704-5.097 1.333-7.64-.178-7.83-4.651-.221-5.194-.987-4.897-3.546 1.374-1.796 4.4-1.669 9.71.281 11.8 4.727 5.066 4.499 10.2-.454 10.2-2.2 0-4-1.972-4-4.383 0-2.41-3.714-9.598-8.253-15.972-4.539-6.375-7.133-13.403-5.764-15.618 4.684-7.578 10.017-4.033 10.49 6.973l.474 11L68 166c1.679-6.6 3.321-10.2 3.648-8 .328 2.2 2.43.85 4.672-3 2.243-3.85 7.138-7.055 10.879-7.122 5.896-.105 5.777-.715-.889-4.584-6.237-3.62-8.911-2.955-14.155 3.522-4.937 6.096-8.62 7.189-15.568 4.618-10.455-3.867-8.087-10.301 5.725-15.553 6.221-2.365 8.728-5.729 7.212-9.68-1.768-4.606-4.142-5.081-9.924-1.987-4.18 2.237-7.6 3.245-7.6 2.239 0-4.643 49.166-25.755 54.875-23.564 4.08 1.566 5.447.867 3.732-1.907-2.801-4.532 4.818-7.715 20.393-8.518 7.436-.383 9 1.621 9 11.536M30.211 163.658c-1.243 2.012-.728 4.262 1.145 5 1.874.738 4.587 6.742 6.03 13.342 2.603 11.91 2.566 11.895-5-1.998C25.546 167.444 24.834 160 30.472 160c1.1 0 .983 1.646-.261 3.658m89.916-.985c-.207 7.599 4.454 17.327 8.301 17.327 5.242 0 4.366-5.421-2.301-14.235-3.23-4.271-5.93-5.662-6-3.092M92 167.235c0 7.575 10.796 17.948 13.734 13.196 1.625-2.63.779-7.403-1.879-10.606-5.253-6.329-11.855-7.771-11.855-2.59m-49.174 31.272c-1.379 1.379.167 7.679 3.436 14S51.305 224 50.205 224s-4.674-5.172-7.943-11.493C36.986 202.304 37.395 196 43.333 196c1.1 0 .872 1.128-.507 2.507M94.995 211c5.217 11.042 2.71 11.229-13.995 1.044-15.964-9.734-16.298-11.965-1.629-10.883 7.345.542 12.877 4.026 15.624 9.839m10.59 21.671c-1.303 2.108.234 6.87 3.415 10.581 12.487 14.569 12.409 17.682-.276 11.122-17.167-8.877-23.186-34.137-6.619-27.78 3.217 1.234 4.783 3.969 3.48 6.077m-29.693 25.015c.135 4.613 33.339 36.682 40.682 39.291 2.984 1.06 4.195 3.255 2.691 4.877-5.24 5.65-35.269-23.289-51.342-49.48C54.226 230.056 53.585 228.153 63.76 240c6.614 7.7 12.073 15.659 12.132 17.686M128 272c4.693 3.033 3.655 3.891-4.764 3.939-5.92.033-11.876-1.739-13.236-3.939-3.157-5.108 10.097-5.108 18 0m32.249 52.579c9.763 4.718 23.151 8.434 29.751 8.257 10.022-.268 10.826.34 4.875 3.69-8.353 4.703-26.569-.378-44.875-12.516-15.593-10.34-11.899-10.135 10.249.569M336 326.438c0 .859-7.306 1.562-16.236 1.562s-15.339-1.451-14.243-3.225c1.915-3.099 30.479-1.541 30.479 1.663m-64.894 20.47c-8.192.859-22.592.871-32 .026-9.408-.845-2.706-1.548 14.894-1.563 17.6-.014 25.298.677 17.106 1.537" fill-rule="evenodd"/></svg>