<?xml version="1.0" encoding="UTF-8"?>
<svg xmlns="http://www.w3.org/2000/svg" xmlns:xlink="http://www.w3.org/1999/xlink" viewBox="0 0 48 48">
<g id="surface3612790">
<path style=" stroke:none;fill-rule:nonzero;fill:rgb(2.745098%,40.000001%,65.882355%);fill-opacity:1;" d="M 28.671875 2.886719 C 28.570312 2.902344 28.46875 2.933594 28.371094 2.976562 C 27.546875 3.386719 26.609375 4.601562 26.429688 4.839844 C 26.417969 4.855469 26.40625 4.871094 26.398438 4.886719 C 25.472656 6.273438 24.980469 7.898438 24.960938 9.589844 C 24.949219 10.855469 25.195312 12.113281 25.699219 13.324219 C 26.867188 16.132812 29.296875 18.457031 32.191406 19.546875 C 32.289062 19.578125 32.382812 19.613281 32.550781 19.671875 C 32.566406 19.679688 32.707031 19.726562 32.730469 19.730469 L 32.835938 19.765625 C 32.984375 19.816406 33.140625 19.863281 33.289062 19.894531 C 34.050781 20.046875 34.792969 20.132812 35.488281 20.15625 C 35.609375 20.15625 35.730469 20.160156 35.851562 20.160156 C 41.109375 20.160156 43.152344 16.449219 43.828125 15.210938 C 43.898438 15.089844 43.945312 14.992188 43.992188 14.933594 C 43.992188 14.929688 43.992188 14.929688 43.996094 14.925781 C 44.292969 14.484375 44.179688 13.890625 43.738281 13.589844 C 43.304688 13.292969 42.707031 13.40625 42.410156 13.84375 L 42.40625 13.84375 C 41.003906 15.910156 38.601562 16.539062 35.277344 15.710938 C 35.027344 15.652344 34.757812 15.558594 34.519531 15.46875 C 34.203125 15.355469 33.890625 15.226562 33.597656 15.082031 C 33.015625 14.792969 32.46875 14.449219 31.972656 14.066406 C 29.046875 11.796875 27.902344 7.078125 29.613281 4.351562 C 29.84375 3.984375 29.800781 3.515625 29.511719 3.195312 C 29.296875 2.953125 28.980469 2.847656 28.671875 2.886719 Z M 20.167969 4.800781 C 19.949219 4.796875 19.730469 4.867188 19.546875 5.015625 C 18.097656 6.199219 16.613281 8.132812 16.546875 8.210938 C 16.542969 8.226562 16.535156 8.238281 16.523438 8.253906 C 13.898438 12.074219 13.699219 17.511719 16.019531 22.105469 C 16.382812 22.832031 16.796875 23.527344 17.234375 24.164062 L 17.367188 24.351562 C 17.738281 24.894531 18.152344 25.511719 18.6875 25.992188 C 18.871094 26.203125 19.070312 26.402344 19.265625 26.597656 L 19.359375 26.695312 L 19.4375 26.773438 C 19.636719 26.964844 19.835938 27.160156 20.046875 27.347656 L 20.050781 27.347656 C 20.066406 27.371094 20.089844 27.386719 20.109375 27.40625 C 20.34375 27.613281 20.582031 27.8125 20.902344 28.066406 L 20.988281 28.128906 C 21.234375 28.328125 21.488281 28.515625 21.746094 28.699219 C 21.773438 28.71875 21.796875 28.734375 21.824219 28.753906 C 21.914062 28.816406 22.003906 28.871094 22.09375 28.933594 L 22.183594 28.996094 L 22.289062 29.0625 C 22.480469 29.191406 22.667969 29.304688 22.933594 29.460938 C 23.109375 29.566406 23.292969 29.671875 23.410156 29.730469 C 23.464844 29.761719 23.519531 29.789062 23.652344 29.859375 L 23.945312 30.015625 C 23.957031 30.023438 24.027344 30.050781 24.042969 30.058594 C 24.234375 30.15625 24.429688 30.25 24.628906 30.339844 L 24.933594 30.476562 C 25.132812 30.5625 25.335938 30.644531 25.582031 30.738281 L 25.695312 30.78125 C 25.703125 30.789062 25.796875 30.820312 25.804688 30.824219 C 25.984375 30.890625 26.167969 30.953125 26.351562 31.011719 L 26.769531 31.152344 C 26.980469 31.222656 27.226562 31.304688 27.492188 31.351562 C 28.800781 31.566406 30.070312 31.679688 31.273438 31.679688 C 31.417969 31.679688 31.558594 31.675781 31.699219 31.675781 C 42.296875 31.445312 45.050781 22.441406 45.078125 22.351562 C 45.210938 21.894531 44.996094 21.414062 44.570312 21.210938 C 44.140625 21.007812 43.632812 21.148438 43.363281 21.539062 C 40.679688 25.460938 35.601562 27.121094 30.429688 25.753906 C 30.191406 25.695312 29.957031 25.628906 29.671875 25.535156 C 29.621094 25.519531 29.578125 25.503906 29.5 25.472656 C 29.332031 25.421875 29.167969 25.363281 28.980469 25.292969 L 28.714844 25.191406 C 28.558594 25.132812 28.40625 25.074219 28.21875 24.988281 L 28.09375 24.933594 C 27.867188 24.835938 27.644531 24.726562 27.445312 24.628906 L 26.898438 24.34375 C 26.773438 24.285156 26.667969 24.21875 26.496094 24.117188 L 26.308594 24.007812 C 26.171875 23.925781 26.03125 23.839844 25.90625 23.75 L 25.816406 23.691406 C 25.808594 23.6875 25.734375 23.636719 25.726562 23.628906 C 25.613281 23.558594 25.503906 23.484375 25.398438 23.417969 C 25.167969 23.253906 24.9375 23.082031 24.671875 22.871094 L 24.566406 22.785156 C 22.089844 20.808594 20.261719 18.167969 19.402344 15.335938 C 18.605469 12.738281 19.195312 9.335938 20.988281 6.238281 C 21.222656 5.839844 21.136719 5.328125 20.777344 5.027344 C 20.601562 4.878906 20.386719 4.800781 20.167969 4.800781 Z M 9.605469 7.679688 C 9.375 7.679688 9.140625 7.761719 8.957031 7.925781 C 7.125 9.574219 5.753906 11.707031 5.601562 11.953125 C 1.679688 17.664062 2.4375 26.539062 5.128906 31.964844 C 5.183594 32.078125 5.238281 32.1875 5.296875 32.296875 L 5.332031 32.355469 C 5.382812 32.464844 5.4375 32.578125 5.457031 32.597656 C 5.484375 32.671875 5.53125 32.75 5.550781 32.769531 C 5.59375 32.863281 5.640625 32.949219 5.722656 33.089844 L 6.03125 33.617188 C 6.074219 33.691406 6.121094 33.765625 6.136719 33.792969 C 6.195312 33.890625 6.257812 33.988281 6.324219 34.089844 L 6.472656 34.332031 C 6.515625 34.402344 6.5625 34.464844 6.59375 34.503906 C 6.742188 34.734375 6.890625 34.96875 7.058594 35.191406 C 7.066406 35.203125 7.074219 35.207031 7.078125 35.214844 L 7.140625 35.296875 C 7.273438 35.492188 7.414062 35.679688 7.539062 35.835938 L 8.085938 36.527344 C 8.09375 36.535156 8.152344 36.609375 8.15625 36.613281 L 8.234375 36.703125 C 8.398438 36.90625 8.578125 37.109375 8.753906 37.304688 C 8.777344 37.335938 8.804688 37.359375 8.832031 37.390625 C 9 37.574219 9.171875 37.757812 9.351562 37.949219 L 9.523438 38.113281 C 9.667969 38.265625 9.808594 38.410156 9.960938 38.550781 C 9.960938 38.554688 10.03125 38.621094 10.03125 38.621094 L 10.179688 38.761719 C 10.359375 38.933594 10.546875 39.105469 10.691406 39.226562 C 10.699219 39.234375 10.832031 39.351562 10.84375 39.359375 C 11.019531 39.515625 11.199219 39.667969 11.378906 39.8125 L 12.296875 40.542969 C 12.449219 40.652344 12.609375 40.765625 12.789062 40.898438 C 12.847656 40.941406 12.910156 40.988281 12.976562 41.027344 C 13 41.050781 13.03125 41.074219 13.050781 41.085938 L 13.738281 41.546875 C 13.992188 41.710938 14.242188 41.863281 14.550781 42.046875 L 14.714844 42.140625 C 14.90625 42.253906 15.101562 42.367188 15.285156 42.464844 C 15.394531 42.523438 15.503906 42.578125 15.597656 42.625 C 15.726562 42.699219 15.871094 42.777344 16.085938 42.882812 C 16.105469 42.890625 16.261719 42.96875 16.277344 42.976562 C 16.496094 43.082031 16.71875 43.183594 16.996094 43.308594 C 16.996094 43.3125 17.085938 43.355469 17.085938 43.355469 C 17.339844 43.460938 17.585938 43.566406 17.914062 43.699219 C 17.964844 43.722656 18.019531 43.738281 18.03125 43.742188 C 18.261719 43.832031 18.507812 43.921875 18.703125 43.996094 C 18.722656 44.003906 18.824219 44.042969 18.84375 44.050781 C 19.109375 44.140625 19.371094 44.226562 19.710938 44.332031 C 19.765625 44.351562 19.828125 44.371094 19.832031 44.371094 L 20.023438 44.429688 C 20.257812 44.5 20.488281 44.578125 20.742188 44.625 C 22.527344 44.953125 24.269531 45.121094 25.921875 45.121094 C 39.675781 45.121094 44.054688 34.054688 44.101562 33.941406 C 44.269531 33.496094 44.085938 32.992188 43.664062 32.761719 C 43.253906 32.53125 42.726562 32.640625 42.433594 33.019531 C 38.90625 37.664062 32.25 39.390625 24.628906 37.640625 C 24.445312 37.59375 24.257812 37.542969 24.074219 37.484375 L 23.714844 37.375 C 23.472656 37.300781 23.226562 37.21875 22.992188 37.136719 C 22.988281 37.136719 22.878906 37.09375 22.878906 37.09375 C 22.667969 37.023438 22.457031 36.941406 22.273438 36.871094 L 22.066406 36.789062 C 21.832031 36.695312 21.601562 36.597656 21.375 36.496094 L 21.242188 36.4375 C 21.042969 36.34375 20.847656 36.253906 20.652344 36.15625 C 20.636719 36.148438 20.484375 36.074219 20.46875 36.070312 C 20.332031 36.003906 20.199219 35.933594 20.023438 35.839844 L 19.242188 35.417969 C 19.164062 35.367188 19.078125 35.316406 19 35.277344 C 18.765625 35.128906 18.519531 34.984375 18.28125 34.828125 C 18.226562 34.796875 18.175781 34.757812 18.082031 34.695312 C 17.917969 34.589844 17.757812 34.480469 17.519531 34.316406 L 17.425781 34.25 C 17.265625 34.136719 17.109375 34.015625 16.976562 33.917969 C 16.894531 33.859375 16.8125 33.792969 16.675781 33.691406 C 16.554688 33.597656 16.4375 33.507812 16.324219 33.417969 L 16.113281 33.242188 C 15.9375 33.101562 15.773438 32.953125 15.601562 32.804688 C 15.578125 32.78125 15.558594 32.765625 15.53125 32.75 C 15.339844 32.574219 15.144531 32.394531 14.914062 32.175781 L 14.234375 31.5 C 14.070312 31.332031 13.90625 31.160156 13.71875 30.953125 C 13.546875 30.761719 13.378906 30.570312 13.160156 30.308594 L 12.753906 29.8125 C 12.703125 29.742188 12.652344 29.671875 12.589844 29.59375 C 12.449219 29.40625 12.3125 29.222656 12.171875 29.027344 C 8.4375 23.882812 7.460938 13.144531 10.371094 9.210938 C 10.664062 8.816406 10.613281 8.261719 10.246094 7.925781 C 10.066406 7.761719 9.832031 7.679688 9.605469 7.679688 Z M 9.605469 7.679688 "/>
</g>
</svg>
